Coordinates
version=1
nRows=34
nColumns=33
inDegrees=yes

Units are S.I. units (second, meters, Newtons, ...)
Angles are in degrees.

endheader
time	ground_thorax_rot_x	ground_thorax_rot_y	ground_thorax_rot_z	ground_thorax_tx	ground_thorax_ty	ground_thorax_tz	clav_prot_r	clav_elev_r	scapula_abduction_r	scapula_elevation_r	scapula_upward_rot_r	scapula_winging_r	shoulder_elv_r	plane_of_elev_r	axial_rot_r	elbow_flexion_r	pro_sup_r	wrist_flex_r	wrist_dev_r	clav_prot_l	clav_elev_l	scapula_abduction_l	scapula_elevation_l	scapula_upward_rot_l	scapula_winging_l	shoulder_elv_l	plane_of_elev_l	axial_rot_l	elbow_flexion_l	pro_sup_l	wrist_flex_l	wrist_dev_l	
8.4300	-36.032593	-17.676077	28.108275	-215.052637	824.941099	6.186780	6.649971	-45.000000	39.390639	-45.000000	-33.725234	-1542.593565	-3887.829442	32.514418	68.522408	732.200205	4.464190	19.005080	8.119850	14.685861	37.636640	-37.653632	-45.000000	-45.000000	86.345241	-2446.777097	23.838560	-39.037795	-350.007921	-4.654993	8.081137	-19.446108	
8.4400	-36.145645	-17.440190	27.850641	-217.220025	825.534566	6.193195	6.659511	-45.000000	39.328671	-45.000000	-33.894290	-1542.667798	-3887.760554	32.531076	68.577994	732.203369	4.355266	19.005781	7.987663	14.655705	37.618352	-37.608714	-45.000000	-45.000000	86.415165	-2446.746394	23.760098	-39.327391	-350.006503	-4.997945	8.023720	-19.412742	
8.4500	-36.252968	-17.216336	27.602982	-219.343413	826.096176	6.199222	6.666863	-45.000000	39.264037	-45.000000	-34.077049	-1542.738902	-3887.696487	32.544654	68.628822	732.208330	4.324445	19.006296	7.844787	14.623966	37.603339	-37.557786	-45.000000	-45.000000	86.481981	-2446.717711	23.681241	-39.619951	-350.004121	-5.298543	7.961010	-19.379000	
8.4600	-36.356117	-16.999738	27.358245	-221.423321	826.626733	6.205371	6.663943	-45.000000	39.202865	-45.000000	-34.248368	-1542.803887	-3887.630256	32.542169	68.661811	732.224081	4.375541	19.008758	7.695682	14.582400	37.612899	-37.508311	-45.000000	-45.000000	86.550707	-2446.691108	23.598067	-39.953670	-349.989592	-5.534158	7.891150	-19.349982	
8.4700	-36.451139	-16.801659	27.128815	-223.460442	827.126618	6.212581	6.671819	-45.000000	39.133939	-45.000000	-34.460576	-1542.870148	-3887.573754	32.554442	68.705635	732.237174	4.516486	19.008870	7.535927	14.551463	37.599411	-37.444128	-45.000000	-45.000000	86.613548	-2446.669098	23.523973	-40.242287	-349.990672	-5.707983	7.803380	-19.318788	
8.4800	-36.539294	-16.615859	26.909175	-225.455628	827.595667	6.221971	6.686842	-45.000000	39.060901	-45.000000	-34.695399	-1542.937086	-3887.523305	32.573338	68.749470	732.252367	4.751296	19.007262	7.366230	14.522254	37.579132	-37.374012	-45.000000	-45.000000	86.671966	-2446.647635	23.450499	-40.521834	-349.992161	-5.806268	7.699828	-19.290105	
8.4900	-36.620582	-16.446421	26.706971	-227.410239	828.033246	6.234625	6.715109	-45.000000	38.979794	-45.000000	-34.971077	-1543.008063	-3887.483862	32.605854	68.802816	732.263267	5.088709	19.001364	7.182517	14.502409	37.535988	-37.293114	-45.000000	-45.000000	86.722481	-2446.625001	23.382925	-40.756233	-350.005329	-5.829571	7.578475	-19.261137	
8.5000	-36.696099	-16.285483	26.513486	-229.325852	828.438288	6.251384	6.743171	-45.000000	38.897954	-45.000000	-35.255743	-1543.079034	-3887.445884	32.635818	68.850156	732.280711	5.534625	18.993560	6.987680	14.479535	37.497695	-37.211053	-45.000000	-45.000000	86.771905	-2446.602179	23.316660	-40.996595	-350.011714	-5.765960	7.443324	-19.237711	
8.5100	-36.766474	-16.134453	26.328429	-231.204347	828.809602	6.272762	6.769149	-45.000000	38.815358	-45.000000	-35.546367	-1543.148738	-3887.410337	32.662141	68.891635	732.303461	6.099065	18.982534	6.778557	14.453087	37.465097	-37.128277	-45.000000	-45.000000	86.819457	-2446.577471	23.249988	-41.234955	-350.013370	-5.613352	7.298516	-19.219222	
8.5200	-36.832566	-15.984399	26.142207	-233.047456	829.146174	6.298916	6.777774	-45.000000	38.739866	-45.000000	-35.807329	-1543.213120	-3887.367693	32.667499	68.914947	732.343868	6.786194	18.970734	6.557596	14.409992	37.466672	-37.053339	-45.000000	-45.000000	86.870976	-2446.551465	23.178778	-41.519140	-349.991436	-5.363552	7.150196	-19.210918	
8.5300	-36.894506	-15.843299	25.964266	-234.856764	829.447615	6.329719	6.782657	-45.000000	38.664810	-45.000000	-36.068806	-1543.276767	-3887.328099	32.668101	68.939669	732.390980	7.610257	18.953541	6.323142	14.365176	37.471064	-36.976578	-45.000000	-45.000000	86.921475	-2446.526127	23.112259	-41.788474	-349.968793	-5.026654	6.992673	-19.206204	
8.5400	-36.951580	-15.710218	25.791250	-236.632999	829.714362	6.364837	6.784793	-45.000000	38.590670	-45.000000	-36.325705	-1543.339518	-3887.290108	32.666662	68.964906	732.449944	8.579929	18.930534	6.079637	14.318317	37.479402	-36.896893	-45.000000	-45.000000	86.973167	-2446.503769	23.050770	-42.055065	-349.942332	-4.605729	6.823442	-19.205368	
8.5500	-37.005196	-15.591026	25.627788	-238.376255	829.947858	6.403807	6.793224	-45.000000	38.513852	-45.000000	-36.589334	-1543.403150	-3887.261651	32.670372	68.996249	732.513512	9.712311	18.896800	5.827011	14.277025	37.476984	-36.810717	-45.000000	-45.000000	87.021216	-2446.481975	22.992293	-42.290090	-349.924413	-4.105455	6.642638	-19.203825	
8.5600	-37.056654	-15.479407	25.469879	-240.086118	830.150398	6.446029	6.803774	-45.000000	38.436624	-45.000000	-36.846549	-1543.467578	-3887.239265	32.673837	69.030492	732.589727	11.021463	18.851054	5.568452	14.236788	37.472603	-36.721294	-45.000000	-45.000000	87.065290	-2446.459217	22.936193	-42.508593	-349.908139	-3.523165	6.452541	-19.202229	
8.5700	-37.107088	-15.379669	25.322428	-241.762163	830.324810	6.490721	6.821631	-45.000000	38.357125	-45.000000	-37.109197	-1543.533380	-3887.226559	32.681566	69.069955	732.675068	12.534484	18.787592	5.305755	14.202728	37.456648	-36.627650	-45.000000	-45.000000	87.104593	-2446.434884	22.882156	-42.691375	-349.900507	-2.854443	6.251828	-19.197614	
8.5800	-37.156617	-15.285302	25.177990	-243.404326	830.473981	6.536883	6.840523	-45.000000	38.278803	-45.000000	-37.365037	-1543.597607	-3887.218542	32.688441	69.112632	732.780085	14.293300	18.703009	5.043751	14.168841	37.440585	-36.532557	-45.000000	-45.000000	87.137458	-2446.410681	22.830358	-42.858888	-349.898762	-2.082512	6.041362	-19.189791	
8.5900	-37.203038	-15.201231	25.041507	-245.013209	830.600482	6.583315	6.865260	-45.000000	38.202408	-45.000000	-37.634587	-1543.659464	-3887.217280	32.698948	69.160652	732.908537	16.377546	18.588951	4.783593	14.140695	37.415204	-36.436023	-45.000000	-45.000000	87.166491	-2446.388160	22.779247	-42.994292	-349.898549	-1.182500	5.818787	-19.177994	
8.6000	-37.246465	-15.118967	24.906045	-246.590151	830.706343	6.628765	6.890782	-45.000000	38.128030	-45.000000	-37.913058	-1543.717152	-3887.217769	32.709512	69.211887	733.082323	18.953948	18.433025	4.527190	14.110869	37.392452	-36.340334	-45.000000	-45.000000	87.188447	-2446.364703	22.729229	-43.112856	-349.886614	-0.094917	5.582686	-19.163208	
8.6100	-37.285274	-15.043251	24.777806	-248.136785	830.793036	6.672189	6.918840	-45.000000	38.054176	-45.000000	-38.210150	-1543.772021	-3887.219882	32.721653	69.274309	733.319509	22.221244	18.218935	4.276405	14.082559	37.367397	-36.245336	-45.000000	-45.000000	87.209653	-2446.341323	22.681591	-43.200137	-349.851440	1.242223	5.324330	-19.145159	
8.6200	-37.325112	-14.963677	24.648708	-249.654672	830.861600	6.713071	6.939257	-45.000000	37.980444	-45.000000	-38.492496	-1543.822263	-3887.225679	32.718966	69.369237	733.683156	26.800186	17.897223	4.035193	14.040678	37.362255	-36.159743	-45.000000	-45.000000	87.220818	-2446.307243	22.632454	-43.256555	-349.781469	3.041829	5.028692	-19.120560	
8.6300	-37.364366	-14.883810	24.523272	-251.144729	830.912869	6.751664	6.955958	-45.000000	37.906217	-45.000000	-38.760836	-1543.873575	-3887.235515	32.703899	69.530865	734.208993	33.028283	17.443051	3.809033	13.994399	37.364668	-36.079376	-45.000000	-45.000000	87.230713	-2446.264109	22.591919	-43.255995	-349.660474	5.399951	4.678480	-19.086817	
8.6400	-37.407149	-14.802891	24.399219	-252.607534	830.947626	6.789020	6.973028	-45.000000	37.821643	-45.000000	-39.041018	-1543.919830	-3887.256200	32.675016	69.842668	735.174789	43.796634	16.632045	3.607292	13.942352	37.375472	-36.000753	-45.000000	-45.000000	87.233643	-2446.197963	22.583918	-43.084963	-349.429208	9.322910	4.169966	-19.028063	
8.6500	-37.451497	-14.724105	24.278830	-254.042918	830.966740	6.826834	6.987603	-45.000000	37.737891	-45.000000	-39.300215	-1543.967842	-3887.288777	32.626334	70.313765	736.477823	57.995173	15.558837	3.439547	13.891373	37.386168	-35.920482	-45.000000	-45.000000	87.238626	-2446.121781	22.605570	-42.798000	-349.115534	14.355120	3.534040	-18.942766	
8.6600	-37.499993	-14.646114	24.156386	-255.450576	830.971133	6.867067	6.997966	-45.000000	37.655569	-45.000000	-39.527478	-1544.012719	-3887.337596	32.556994	70.929301	738.018251	74.620831	14.296163	3.319463	13.838556	37.401411	-35.839199	-45.000000	-45.000000	87.238396	-2446.038524	22.644019	-42.435952	-348.761114	20.107321	2.824787	-18.834547	
8.6700	-37.546603	-14.573653	24.037201	-256.829627	830.961817	6.911559	7.007442	-45.000000	37.585788	-45.000000	-39.712959	-1544.064361	-3887.394346	32.479523	71.588629	739.407309	89.574999	13.165916	3.249103	13.798403	37.401377	-35.750735	-45.000000	-45.000000	87.244892	-2445.973498	22.680199	-42.144702	-348.463420	25.099646	2.191893	-18.720988	
8.6800	-37.590075	-14.509237	23.923644	-258.179236	830.939777	6.961701	7.020084	-45.000000	37.518239	-45.000000	-39.904450	-1544.112972	-3887.453866	32.406438	72.226228	740.600969	102.433485	12.193767	3.226485	13.766097	37.393231	-35.655730	-45.000000	-45.000000	87.254031	-2445.926736	22.703983	-41.934153	-348.229776	29.223721	1.668846	-18.613035	
8.6900	-37.632682	-14.447666	23.814318	-259.498023	830.906003	7.018344	7.028876	-45.000000	37.462934	-45.000000	-40.066206	-1544.165060	-3887.508491	32.335617	72.741660	741.311650	110.180044	11.620782	3.235323	13.739475	37.378649	-35.558032	-45.000000	-45.000000	87.268924	-2445.907480	22.697833	-41.924967	-348.131342	31.446949	1.358406	-18.522786	
8.7000	-37.672599	-14.390552	23.714158	-260.784361	830.861343	7.081843	7.037522	-45.000000	37.407945	-45.000000	-40.236619	-1544.215375	-3887.554225	32.274535	73.113531	741.620788	113.700277	11.367442	3.264839	13.713506	37.366022	-35.462845	-45.000000	-45.000000	87.284874	-2445.905858	22.660318	-42.062838	-348.137917	32.163472	1.237003	-18.455126	
8.7100	-37.710069	-14.339882	23.624858	-262.035903	830.806494	7.152228	7.049857	-45.000000	37.353609	-45.000000	-40.426245	-1544.266561	-3887.589933	32.227137	73.344398	741.602451	113.739204	11.382422	3.296664	13.691724	37.348075	-35.368621	-45.000000	-45.000000	87.305034	-2445.918265	22.603132	-42.311739	-348.226857	31.691998	1.257543	-18.405303	
8.7200	-37.741101	-14.301748	23.553398	-263.249975	830.741882	7.229352	7.073153	-45.000000	37.289360	-45.000000	-40.682261	-1544.312792	-3887.618339	32.197283	73.508021	741.578968	113.705158	11.398289	3.324162	13.675009	37.323351	-35.275477	-45.000000	-45.000000	87.328694	-2445.934230	22.548307	-42.526536	-348.307592	31.285599	1.285528	-18.360248	
8.7300	-37.771220	-14.271027	23.489467	-264.423413	830.667651	7.313040	7.098416	-45.000000	37.225769	-45.000000	-40.953721	-1544.355610	-3887.642574	32.173155	73.625178	741.551401	113.592519	11.423383	3.340076	13.656591	37.299625	-35.186268	-45.000000	-45.000000	87.353881	-2445.948543	22.494247	-42.732466	-348.382245	30.935419	1.308115	-18.315808	
8.7400	-37.794244	-14.251002	23.441641	-265.552627	830.583591	7.403071	7.127341	-45.000000	37.163245	-45.000000	-41.244428	-1544.399120	-3887.660900	32.155114	73.713247	741.519129	113.397616	11.450831	3.348724	13.641036	37.274247	-35.104247	-45.000000	-45.000000	87.383217	-2445.966454	22.438488	-42.917461	-348.445510	30.631814	1.327414	-18.273742	
8.7500	-37.817078	-14.228646	23.387458	-266.633856	830.489149	7.499160	7.155357	-45.000000	37.104066	-45.000000	-41.529490	-1544.435026	-3887.676476	32.142381	73.776590	741.482172	113.126058	11.485087	3.348159	13.621116	37.253181	-35.020581	-45.000000	-45.000000	87.404091	-2445.980511	22.389430	-43.099988	-348.502508	30.371388	1.346577	-18.236964	
8.7600	-37.833053	-14.215423	23.347937	-267.663090	830.383460	7.600858	7.181227	-45.000000	37.051332	-45.000000	-41.817021	-1544.469796	-3887.688622	32.128520	73.829751	741.441173	112.784247	11.523478	3.339806	13.603494	37.229667	-34.948207	-45.000000	-45.000000	87.428173	-2446.005213	22.338454	-43.255084	-348.550584	30.147873	1.358084	-18.199866	
